<?xml version="1.0" encoding="UTF-8"?>
<svg width="26px" height="26px" viewBox="0 0 26 26" version="1.1" xmlns="http://www.w3.org/2000/svg" xmlns:xlink="http://www.w3.org/1999/xlink">
    <!-- Generator: Sketch 64 (93537) - https://sketch.com -->
    <title>汇总</title>
    <desc>Created with Sketch.</desc>
    <defs>
        <linearGradient x1="56.5038731%" y1="0%" x2="50%" y2="100%" id="linearGradient-1">
            <stop stop-color="#38C6FF" offset="0%"></stop>
            <stop stop-color="#5F8EF9" offset="100%"></stop>
        </linearGradient>
    </defs>
    <g id="页面-1" stroke="none" stroke-width="1" fill="none" fill-rule="evenodd">
        <g id="通知提醒-批量操作-存在失败" transform="translate(-1528.000000, -965.000000)" fill-rule="nonzero">
            <g id="汇总" transform="translate(1528.000000, 965.000000)">
                <path d="M0,13 C0,20.1797017 5.82029825,26 13,26 C20.1797017,26 26,20.1797017 26,13 C26,5.82029825 20.1797017,0 13,0 C5.82029825,0 0,5.82029825 0,13 Z" id="路径" fill="url(#linearGradient-1)"></path>
                <g id="编组-4" transform="translate(6.000000, 6.000000)" fill="#FFFFFF">
                    <polygon id="路径" points="13.3665644 4.0797546 6.68328221 8.1595092 -2.13162821e-14 4.0797546 6.68328221 -1.09423581e-13"></polygon>
                    <path d="M12.4217791,6.36388037 C12.5962423,6.2565184 12.8243865,6.30751534 12.9317485,6.48197853 C13.0391104,6.65644172 12.9881135,6.88458589 12.8136503,6.99194785 L6.68328221,10.8167178 L0.550230061,6.99194785 C0.375766871,6.88458589 0.324769939,6.65644172 0.432131902,6.48197853 C0.539493865,6.30751534 0.770322086,6.2565184 0.942101227,6.36388037 L6.68328221,9.94440184 L12.4217791,6.36388037 Z" id="路径" opacity="0.802081949"></path>
                    <path d="M12.4217791,9.34317485 C12.5962423,9.23581288 12.8243865,9.28680982 12.9317485,9.46127301 C13.0391104,9.6357362 12.9881135,9.86388037 12.8136503,9.97124233 L6.68328221,13.7960123 L0.550230061,9.97124233 C0.375766871,9.86388037 0.324769939,9.6357362 0.432131902,9.46127301 C0.539493865,9.28680982 0.770322086,9.23581288 0.942101227,9.34317485 L6.68328221,12.9236963 L12.4217791,9.34317485 Z" id="路径" opacity="0.596864315"></path>
                </g>
            </g>
        </g>
    </g>
</svg>